<?xml version="1.0" encoding="utf-8"?>
<!-- Generator: Adobe Illustrator 23.0.1, SVG Export Plug-In . SVG Version: 6.00 Build 0)  -->
<svg version="1.1" id="Layer_1" xmlns="http://www.w3.org/2000/svg" xmlns:xlink="http://www.w3.org/1999/xlink" x="0px" y="0px"
	 viewBox="0 0 148.2 39.2" style="enable-background:new 0 0 148.2 39.2;" xml:space="preserve">
<style type="text/css">
	.st0{enable-background:new    ;}
	.st1{fill:#00C2FF;}
	.st2{fill:#00CC80;}
</style>
<g id="logo" transform="translate(-140 -34.417)">
	<g>
		<g class="st0">
			<path d="M151.9,70.1l-5.1-16h3.4l2.2,7.4c0.7,2.2,1.2,4.1,1.5,5.8h0c0.3-1.5,0.9-3.4,1.6-5.7l2.3-7.4h3.2l-5.3,16H151.9z"/>
			<path d="M162.3,53.2h3v3h-3V53.2z M162.3,58.1h3v12h-3V58.1z"/>
			<path d="M170.2,66.5c0.2,1,0.9,1.5,2.1,1.5c1.1,0,1.5-0.4,1.5-1.2c0-0.8-0.5-1.1-2-1.5c-3.6-1-4.1-2.2-4.1-3.9
				c0-1.8,1.1-3.6,4.4-3.6c3.3,0,4.4,2,4.5,3.6h-2.9c-0.1-0.4-0.4-1.3-1.8-1.3c-1,0-1.3,0.5-1.3,1c0,0.6,0.3,0.9,2.1,1.3
				c3.6,0.9,4.2,2.3,4.2,4.1c0,2-1.4,3.8-4.7,3.8c-3.3,0-4.7-1.8-4.9-3.9H170.2z"/>
			<path d="M178.9,53.2h3v3h-3V53.2z M178.9,58.1h3v12h-3V58.1z"/>
			<path d="M194.8,64.1c0,3.6-2,6.3-5.4,6.3c-3.4,0-5.4-2.7-5.4-6.2c0-3.7,2-6.3,5.5-6.3C192.7,57.8,194.8,60.3,194.8,64.1z
				 M187,64.1c0,2.3,0.9,3.7,2.4,3.7c1.5,0,2.3-1.4,2.3-3.7c0-2.5-0.8-3.7-2.3-3.7C187.9,60.4,187,61.6,187,64.1z"/>
			<path d="M196.8,61.1c0-1,0-2.1,0-3h2.9c0.1,0.3,0.1,1.1,0.1,1.5c0.4-0.8,1.3-1.8,3.2-1.8c2.2,0,3.6,1.6,3.6,4.6v7.6h-3v-7.3
				c0-1.4-0.4-2.3-1.7-2.3c-1.3,0-2,0.8-2,2.9v6.7h-3V61.1z"/>
			<path d="M217.4,70.1l-3.1-5.6h0l-3.2,5.6h-3.4l4.8-8.1l-4.7-7.9h3.6l2.9,5.3h0l3-5.3h3.3l-4.7,7.6l4.9,8.4H217.4z"/>
		</g>
	</g>
	<path id="Rectangle_1" class="st1" d="M279.5,38.8L279.5,38.8c1.1,1.2,1.1,3.2,0,4.4l-9.1,10c-1.1,1.2-2.9,1.2-4,0l0,0
		c-1.1-1.2-1.1-3.2,0-4.4l9.1-10C276.7,37.6,278.4,37.6,279.5,38.8z"/>
	<path id="Rectangle_2" class="st2" d="M280.6,49.5L280.6,49.5c1.1,1.2,1.1,3.2,0,4.4l-9.1,10c-1.1,1.2-2.9,1.2-4,0l0,0
		c-1.1-1.2-1.1-3.2,0-4.4l9.1-10C277.7,48.3,279.5,48.3,280.6,49.5z"/>
</g>
</svg>
