<?xml version="1.0" encoding="utf-8"?>
<!-- Generator: Adobe Illustrator 23.0.1, SVG Export Plug-In . SVG Version: 6.00 Build 0)  -->
<svg version="1.1" id="Layer_1" xmlns="http://www.w3.org/2000/svg" xmlns:xlink="http://www.w3.org/1999/xlink" x="0px" y="0px"
	 viewBox="0 0 148.2 39.2" style="enable-background:new 0 0 148.2 39.2;" xml:space="preserve">
<style type="text/css">
	.st0{enable-background:new    ;}
	.st1{fill:#FFFFFF;}
	.st2{fill:#00C2FF;}
	.st3{fill:#00CC80;}
</style>
<g id="logo-white" transform="translate(-140 -2649.417)">
	<g>
		<g class="st0">
			<path class="st1" d="M139.8,2667.6h3.6l1.8,7c0.4,1.6,0.7,3.2,1.2,4.8h0.1c0.5-1.7,0.8-3.2,1.2-4.8l1.8-7h3.5l-4.5,15h-4.1
				L139.8,2667.6z"/>
			<path class="st1" d="M154,2667.8c0-1,0.8-1.8,2-1.8s2,0.7,2,1.8c0,1-0.8,1.8-2,1.8S154,2668.8,154,2667.8z M154.3,2671.2h3.4
				v11.4h-3.4V2671.2z"/>
			<path class="st1" d="M159.6,2681.3l1.5-2.1c1,0.8,2,1.2,2.9,1.2c1,0,1.4-0.4,1.4-1c0-0.8-1.1-1.1-2.3-1.6c-1.4-0.5-3-1.5-3-3.4
				c0-2.1,1.7-3.6,4.4-3.6c1.7,0,3,0.7,4,1.4l-1.5,2c-0.8-0.6-1.6-1-2.4-1c-0.9,0-1.3,0.3-1.3,0.9c0,0.7,1.1,1,2.3,1.4
				c1.4,0.5,3.1,1.3,3.1,3.4c0,2.1-1.6,3.7-4.7,3.7C162.5,2682.9,160.8,2682.2,159.6,2681.3z"/>
			<path class="st1" d="M170.5,2667.8c0-1,0.8-1.8,2-1.8s2,0.7,2,1.8c0,1-0.8,1.8-2,1.8S170.5,2668.8,170.5,2667.8z M170.8,2671.2
				h3.4v11.4h-3.4V2671.2z"/>
			<path class="st1" d="M176.5,2676.9c0-3.8,2.7-6,5.6-6s5.6,2.2,5.6,6c0,3.8-2.7,6-5.6,6S176.5,2680.7,176.5,2676.9z M184.1,2676.9
				c0-2-0.7-3.3-2.1-3.3c-1.4,0-2.1,1.3-2.1,3.3s0.7,3.2,2.1,3.2C183.5,2680.1,184.1,2678.9,184.1,2676.9z"/>
			<path class="st1" d="M189.9,2671.2h2.8l0.2,1.4h0.1c1-0.9,2.1-1.7,3.7-1.7c2.5,0,3.5,1.8,3.5,4.6v7.1h-3.4v-6.6
				c0-1.6-0.4-2.2-1.4-2.2c-0.8,0-1.4,0.4-2.1,1.1v7.7h-3.4V2671.2z"/>
			<path class="st1" d="M206,2674.9l-3.9-7.3h3.8l1.3,2.8c0.3,0.7,0.7,1.5,1.1,2.4h0.1c0.3-0.9,0.7-1.7,1-2.4l1.2-2.8h3.6l-3.9,7.4
				l4.1,7.6h-3.8l-1.5-3.1c-0.4-0.8-0.7-1.5-1.1-2.5h-0.1c-0.4,0.9-0.7,1.7-1,2.5l-1.4,3.1h-3.6L206,2674.9z"/>
			<path class="st1" d="M223.9,2670.4h-4.1v-2.8h11.6v2.8h-4.1v12.1h-3.4V2670.4z"/>
			<path class="st1" d="M232.8,2676.9c0-3.7,2.6-6,5.4-6c3.2,0,4.9,2.4,4.9,5.5c0,0.6-0.1,1.2-0.1,1.5h-6.8c0.3,1.7,1.4,2.4,3,2.4
				c0.9,0,1.6-0.3,2.5-0.7l1.1,2c-1.2,0.8-2.7,1.3-4,1.3C235.4,2682.9,232.8,2680.7,232.8,2676.9z M240.2,2675.6
				c0-1.3-0.5-2.2-1.9-2.2c-1.1,0-2,0.7-2.2,2.2H240.2z"/>
			<path class="st1" d="M244.9,2679.4c0-2.4,1.9-3.7,6.4-4.2c-0.1-1-0.6-1.6-1.8-1.6c-1,0-1.9,0.4-3,1l-1.2-2.2
				c1.4-0.9,3.1-1.5,4.9-1.5c2.9,0,4.5,1.7,4.5,5.2v6.5h-2.8l-0.2-1.2h-0.1c-1,0.8-2,1.4-3.3,1.4
				C246.2,2682.9,244.9,2681.4,244.9,2679.4z M251.3,2679.3v-2c-2.4,0.3-3.2,1-3.2,1.9c0,0.7,0.5,1.1,1.3,1.1
				C250.2,2680.3,250.7,2679.9,251.3,2679.3z"/>
			<path class="st1" d="M257.5,2671.2h2.8l0.2,1.5h0.1c0.9-0.9,2-1.7,3.5-1.7c1.6,0,2.6,0.7,3.1,1.9c1-1,2.1-1.9,3.6-1.9
				c2.5,0,3.6,1.8,3.6,4.6v7.1H271v-6.6c0-1.6-0.4-2.2-1.4-2.2c-0.6,0-1.2,0.4-1.9,1.1v7.7h-3.4v-6.6c0-1.6-0.4-2.2-1.4-2.2
				c-0.6,0-1.2,0.4-1.9,1.1v7.7h-3.4V2671.2z"/>
		</g>
	</g>
	<path id="Rectangle_7" class="st2" d="M284.8,2651.6L284.8,2651.6c1.2,1.2,1.2,3.2,0,4.4l-9.9,9.9c-1.2,1.2-3.2,1.2-4.4,0l0,0
		c-1.2-1.2-1.2-3.2,0-4.4l9.9-9.9C281.7,2650.4,283.6,2650.4,284.8,2651.6z"/>
	<path id="Rectangle_8" class="st3" d="M286,2662.2L286,2662.2c1.2,1.2,1.2,3.2,0,4.4l-9.9,9.9c-1.2,1.2-3.2,1.2-4.4,0l0,0
		c-1.2-1.2-1.2-3.2,0-4.4l9.9-9.9C282.8,2661,284.8,2661,286,2662.2z"/>
</g>
</svg>
